<svg width="25" height="24" viewBox="0 0 25 24" fill="none" xmlns="http://www.w3.org/2000/svg">
<mask id="mask0_503_31818" style="mask-type:alpha" maskUnits="userSpaceOnUse" x="3" y="1" width="19" height="22">
<path fill-rule="evenodd" clip-rule="evenodd" d="M22 1H3V23H22V1ZM9.5 6C8.94772 6 8.5 6.44772 8.5 7C8.5 7.55228 8.94772 8 9.5 8H16.5C17.0523 8 17.5 7.55228 17.5 7C17.5 6.44772 17.0523 6 16.5 6H9.5ZM6.5 18C6.5 16.8954 7.39543 16 8.5 16H18.5V20H8.5C7.39543 20 6.5 19.1046 6.5 18Z" fill="#D9D9D9"/>
</mask>
<g mask="url(#mask0_503_31818)">
<path d="M5.25 4.75C5.25 3.64543 6.14543 2.75 7.25 2.75H18.75C19.3023 2.75 19.75 3.19772 19.75 3.75V17.75H5.25V4.75Z" fill="#ffffff" stroke="#ffffff" stroke-width="1.5" stroke-linejoin="round"/>
<path d="M5.5 18C5.5 16.3431 6.84315 15 8.5 15H19.5V20C19.5 20.5523 19.0523 21 18.5 21H8.5C6.84315 21 5.5 19.6569 5.5 18Z" fill="#ffffff" stroke="#ffffff" stroke-width="2" stroke-linejoin="round"/>
</g>
</svg>
