<?xml version="1.0" encoding="UTF-8"?>
<svg id="Capa_1" data-name="Capa 1" xmlns="http://www.w3.org/2000/svg" viewBox="0 0 160 137.19">
  <defs>
    <style>
      .cls-1 {
        fill: #fff;
        fill-rule: evenodd;
      }
    </style>
  </defs>
  <path class="cls-1" d="M18.35,102.7c3.58,0,6.49,2.9,6.49,6.49s-2.9,6.49-6.49,6.49-6.49-2.9-6.49-6.49,2.9-6.49,6.49-6.49M15.96,15.09h114.32c-8.22,8.92-22.16,26.34-29.27,34.86-4.24,5.08-11.22,14.89-17.34,16.51-17.92,4.75-25.31-27.2-43.84-22.51-9.19,2.32-12.18,13.54-6.55,21.92,2.44,3.63,29.8,29.48,33.95,33.55,10.99,10.79,17.61,14.14,29.96-1.69l42.1-50.11c1.33-1.88,2.56-2.88,4.05-4.81,2.16-2.8,6.8-7.67,11.25-12.82v81.6c0,5.79-4.74,10.53-10.53,10.53H15.96c-5.79,0-10.53-4.74-10.53-10.53V25.61c0-5.79,4.74-10.53,10.53-10.53Z"/>
</svg>