<?xml version="1.0" encoding="UTF-8"?>
<svg id="Capa_1" data-name="Capa 1" xmlns="http://www.w3.org/2000/svg" viewBox="0 0 160 137.19">
  <defs>
    <style>
      .cls-1, .cls-2 {
        fill: #fff;
      }

      .cls-2 {
        fill-rule: evenodd;
      }
    </style>
  </defs>
  <path class="cls-2" d="M47.48,52.43c1.95,0,3.52,1.58,3.52,3.52s-1.58,3.53-3.52,3.53-3.52-1.58-3.52-3.53,1.58-3.52,3.52-3.52M46.18,4.82h62.12c-4.47,4.85-12.04,14.31-15.9,18.94-2.3,2.76-6.1,8.09-9.42,8.97-9.74,2.58-13.75-14.78-23.82-12.23-5,1.26-6.62,7.36-3.56,11.91,1.33,1.98,16.19,16.02,18.45,18.23,5.97,5.86,9.57,7.68,16.28-.92l22.87-27.23c.72-1.02,1.39-1.56,2.2-2.62,1.17-1.52,3.69-4.17,6.11-6.97v44.34c0,3.15-2.57,5.72-5.72,5.72H46.18c-3.15,0-5.72-2.57-5.72-5.72V10.55c0-3.15,2.57-5.72,5.72-5.72Z"/>
  <g>
    <g>
      <path class="cls-1" d="M0,83.82h4.54l4.44,17.92,9.61-17.92h5.01l-13.29,24.82h-4.17L0,83.82Z"/>
      <path class="cls-1" d="M36.95,103.26l3.96,2.05c-.89,1.17-2.07,2.09-3.53,2.77-1.47.68-3.1,1.02-4.89,1.02-2.8,0-5.01-.79-6.62-2.36-1.61-1.57-2.42-3.67-2.42-6.28,0-2.98,1.01-5.5,3.03-7.57s4.46-3.1,7.31-3.1c1.72,0,3.25.38,4.6,1.13,1.34.75,2.4,1.85,3.18,3.29.78,1.44,1.16,3,1.16,4.69,0,.53-.06,1.15-.17,1.86h-14.65c.05,1.28.46,2.29,1.26,3.05s1.89,1.14,3.28,1.14c1.69,0,3.18-.56,4.49-1.69ZM38.1,97.46c-.34-1.12-.9-1.98-1.69-2.56-.79-.58-1.74-.87-2.85-.87s-2.1.3-2.99.89c-.89.6-1.56,1.44-2.03,2.53h9.55Z"/>
      <path class="cls-1" d="M46.78,90.28h4.01l-.32,2.5c1.2-1.98,2.65-2.97,4.34-2.97.41,0,.83.11,1.27.32l-1.65,4.1c-.34-.12-.59-.18-.75-.18-.88,0-1.66.51-2.35,1.53-.69,1.02-1.23,3.07-1.63,6.17l-.89,6.9h-4.52l2.51-18.36Z"/>
      <path class="cls-1" d="M56.35,90.28h4.43l3.57,10.89,6.28-10.89h4.86l-14.42,25.07h-4.76l5.21-9.22-5.16-15.85Z"/>
    </g>
    <g>
      <path class="cls-1" d="M102.23,87.24l-1.5,2.08c-2.63-2.47-5.63-3.71-8.99-3.71-2.19,0-4.24.54-6.15,1.6-1.91,1.07-3.4,2.51-4.47,4.32-1.07,1.81-1.61,3.76-1.61,5.84,0,1.86.41,3.51,1.24,4.95.83,1.44,2.02,2.57,3.59,3.39s3.35,1.22,5.37,1.22c3.07,0,5.93-.97,8.59-2.92l1.38,1.97c-1.97,1.29-3.66,2.15-5.08,2.6s-3.05.67-4.91.67c-3.43,0-6.23-.86-8.38-2.58-2.87-2.31-4.3-5.38-4.3-9.23s1.43-7.34,4.3-10.11c2.87-2.77,6.43-4.15,10.7-4.15,1.95,0,3.72.31,5.31.92s3.24,1.66,4.93,3.13Z"/>
      <path class="cls-1" d="M123.4,99.93h-16.37c-.03,2.18.53,3.9,1.7,5.15,1.17,1.25,2.73,1.87,4.67,1.87,1.29,0,2.49-.27,3.59-.79,1.1-.53,2.01-1.27,2.73-2.23l1.76,1.43c-.89,1.14-2.05,2.04-3.48,2.73-1.43.68-2.98,1.02-4.65,1.02-2.88,0-5.04-.89-6.49-2.67-1.45-1.78-2.17-3.79-2.17-6.01,0-1.82.49-3.58,1.46-5.26.97-1.69,2.27-3,3.91-3.94s3.4-1.41,5.3-1.41c2.35,0,4.3.8,5.84,2.39,1.54,1.59,2.31,3.62,2.31,6.08,0,.45-.04,1-.12,1.65ZM121.24,97.87c-.07-1.73-.66-3.13-1.77-4.2-1.11-1.07-2.51-1.61-4.2-1.61-1.83,0-3.45.51-4.85,1.55-1.4,1.03-2.39,2.45-2.98,4.26h13.8Z"/>
      <path class="cls-1" d="M128.41,90.28h2.37l-.32,2.31c.63-.88,1.39-1.56,2.28-2.05.89-.49,1.8-.73,2.74-.73.66,0,1.36.16,2.08.47l-1.11,2.16c-.59-.24-1.07-.36-1.47-.36-.82,0-1.63.29-2.44.86-.8.57-1.45,1.41-1.95,2.51-.5,1.1-.92,2.9-1.27,5.41l-1.07,7.78h-2.32l2.48-18.36Z"/>
      <path class="cls-1" d="M142.65,83.41h2.31l-.91,6.87h3.7l-.27,2.06h-3.7l-2.17,16.3h-2.36l2.2-16.3h-3.15l.29-2.06h3.14l.93-6.87Z"/>
      <path class="cls-1" d="M160,92.34l-1.28,1.91c-1.04-1.47-2.26-2.21-3.68-2.21-.81,0-1.5.26-2.08.79s-.86,1.11-.86,1.76c0,.49.17.97.52,1.42.34.45,1.11,1.06,2.31,1.84,1.75,1.14,2.91,2.13,3.47,2.97.55.85.83,1.84.83,2.95,0,1.54-.54,2.82-1.61,3.83-1.07,1.01-2.47,1.52-4.19,1.52-2.27,0-4.19-1.01-5.74-3.02l1.43-1.67c1.36,1.65,2.84,2.48,4.44,2.48.91,0,1.7-.32,2.38-.96s1.01-1.38,1.01-2.23c0-.68-.25-1.34-.76-1.97-.33-.4-1.2-1.09-2.63-2.06-1.54-1.06-2.55-1.93-3.04-2.63-.49-.69-.73-1.46-.73-2.33,0-1.36.51-2.52,1.54-3.47,1.02-.96,2.32-1.43,3.88-1.43.92,0,1.76.19,2.51.56.75.37,1.51,1.03,2.27,1.98Z"/>
    </g>
  </g>
  <g>
    <path class="cls-1" d="M17.24,124.11l2.15,6.4h-.66l-.7-2.09h-2.71l-1.2,2.09h-.71l3.69-6.4h.15ZM17.03,125.45l-1.36,2.36h2.15l-.79-2.36Z"/>
    <path class="cls-1" d="M22.52,125.77h.61l-.29,1.98c-.08.58-.13.95-.13,1.11,0,.35.11.64.33.87.22.22.51.34.88.34.3,0,.57-.09.79-.26s.38-.4.48-.68c.05-.14.1-.47.17-.98l.32-2.37h.6l-.23,1.79c-.11.86-.23,1.47-.35,1.83-.12.36-.34.66-.66.89-.32.23-.7.35-1.15.35-.51,0-.94-.17-1.27-.5-.33-.34-.49-.75-.49-1.26,0-.2.02-.43.05-.7l.04-.42.02-.18.26-1.8Z"/>
    <path class="cls-1" d="M29.71,124h.6l-.24,1.77h.95l-.07.53h-.95l-.56,4.21h-.61l.57-4.21h-.81l.07-.53h.81l.24-1.77Z"/>
    <path class="cls-1" d="M37.54,128.26h-4.22c0,.56.14,1.01.44,1.33.3.32.7.48,1.21.48.33,0,.64-.07.93-.2.28-.14.52-.33.71-.58l.45.37c-.23.29-.53.53-.9.7-.37.18-.77.26-1.2.26-.74,0-1.3-.23-1.67-.69s-.56-.98-.56-1.55c0-.47.12-.92.38-1.36s.59-.77,1.01-1.02.88-.36,1.37-.36c.61,0,1.11.2,1.51.62.4.41.6.93.6,1.57,0,.12,0,.26-.03.43ZM36.98,127.73c-.02-.45-.17-.81-.46-1.08-.29-.28-.65-.41-1.08-.41-.47,0-.89.13-1.25.4-.36.27-.62.63-.77,1.1h3.56Z"/>
    <path class="cls-1" d="M40.38,125.77h.59l-.1.74c.48-.57,1.04-.86,1.68-.86.49,0,.89.15,1.19.45s.45.7.45,1.21c0,.2-.03.54-.1,1.02l-.29,2.17h-.6l.29-2.17c.06-.46.1-.81.1-1.03,0-.33-.1-.6-.3-.8-.2-.2-.46-.31-.79-.31s-.62.08-.89.25c-.27.17-.49.39-.64.67-.15.28-.27.73-.35,1.34l-.27,2.05h-.6l.64-4.74Z"/>
    <path class="cls-1" d="M47.87,124h.6l-.24,1.77h.95l-.07.53h-.95l-.56,4.21h-.61l.57-4.21h-.81l.07-.53h.81l.24-1.77Z"/>
    <path class="cls-1" d="M51.32,125.77h.58l-.62,4.74h-.6l.64-4.74ZM51.8,123.82c.13,0,.25.05.34.14s.14.21.14.34-.05.25-.14.35c-.1.1-.21.14-.34.14s-.25-.05-.35-.14-.14-.21-.14-.35.05-.25.14-.34c.1-.1.21-.14.35-.14Z"/>
    <path class="cls-1" d="M58.92,126.8l-.5.29c-.35-.57-.89-.85-1.61-.85-.42,0-.8.09-1.14.28s-.61.44-.81.78c-.19.33-.29.68-.29,1.06,0,.33.07.63.22.9.15.26.35.47.61.61.26.14.57.21.93.21s.71-.07,1.05-.22.59-.33.78-.56l.5.35c-.31.34-.65.59-1.02.75-.37.16-.79.24-1.28.24-.75,0-1.33-.2-1.75-.61-.42-.41-.63-.95-.63-1.63,0-.76.28-1.4.83-1.93.55-.54,1.22-.8,2.02-.8.48,0,.9.1,1.27.3.37.2.65.48.84.84Z"/>
    <path class="cls-1" d="M61.48,125.77h.58l-.62,4.74h-.6l.64-4.74ZM61.95,123.82c.13,0,.25.05.34.14s.14.21.14.34-.05.25-.14.35c-.1.1-.21.14-.34.14s-.25-.05-.35-.14-.14-.21-.14-.35.05-.25.14-.34c.1-.1.21-.14.35-.14Z"/>
    <path class="cls-1" d="M68.74,130.51h-.61l.1-.73c-.56.57-1.19.86-1.9.86-.64,0-1.16-.21-1.58-.62s-.62-.95-.62-1.6c0-.75.27-1.4.81-1.94s1.17-.81,1.9-.81c.39,0,.74.08,1.03.25s.55.42.77.78l.36-2.73h.63l-.89,6.57ZM66.4,130.07c.39,0,.75-.09,1.07-.28s.58-.45.76-.79c.19-.34.28-.72.28-1.13,0-.49-.15-.89-.46-1.2-.31-.31-.71-.46-1.21-.46-.58,0-1.08.21-1.49.63-.41.42-.62.94-.62,1.55,0,.5.15.91.46,1.21s.71.46,1.21.46Z"/>
    <path class="cls-1" d="M76.13,130.51h-.61l.09-.71c-.55.56-1.17.83-1.88.83-.64,0-1.17-.21-1.58-.62s-.62-.95-.62-1.6c0-.75.27-1.4.81-1.94.54-.54,1.17-.81,1.9-.81.39,0,.74.08,1.04.25.3.16.55.42.75.77l.11-.9h.63l-.64,4.74ZM73.8,130.07c.39,0,.75-.09,1.07-.28.32-.19.57-.45.76-.8.19-.35.28-.72.28-1.13,0-.49-.16-.89-.46-1.2s-.71-.46-1.21-.46c-.58,0-1.08.21-1.49.63s-.62.94-.62,1.55c0,.5.15.91.46,1.21s.71.46,1.21.46Z"/>
    <path class="cls-1" d="M83.54,130.51h-.61l.1-.73c-.56.57-1.19.86-1.9.86-.64,0-1.16-.21-1.58-.62s-.62-.95-.62-1.6c0-.75.27-1.4.81-1.94s1.17-.81,1.9-.81c.39,0,.74.08,1.03.25s.55.42.77.78l.36-2.73h.63l-.89,6.57ZM81.2,130.07c.39,0,.75-.09,1.07-.28s.58-.45.76-.79c.19-.34.28-.72.28-1.13,0-.49-.15-.89-.46-1.2-.31-.31-.71-.46-1.21-.46-.58,0-1.08.21-1.49.63-.41.42-.62.94-.62,1.55,0,.5.15.91.46,1.21s.71.46,1.21.46Z"/>
    <path class="cls-1" d="M92.25,124.11l2.15,6.4h-.66l-.7-2.09h-2.71l-1.2,2.09h-.71l3.69-6.4h.15ZM92.04,125.45l-1.36,2.36h2.15l-.79-2.36Z"/>
    <path class="cls-1" d="M99.45,126.3l-.33.49c-.27-.38-.58-.57-.95-.57-.21,0-.39.07-.54.2-.15.14-.22.29-.22.45,0,.13.04.25.13.37.09.12.29.27.6.47.45.29.75.55.9.77.14.22.21.47.21.76,0,.4-.14.73-.42.99-.28.26-.64.39-1.08.39-.59,0-1.08-.26-1.48-.78l.37-.43c.35.43.73.64,1.15.64.24,0,.44-.08.61-.25.17-.17.26-.36.26-.58,0-.18-.07-.35-.2-.51-.08-.1-.31-.28-.68-.53-.4-.27-.66-.5-.78-.68-.12-.18-.19-.38-.19-.6,0-.35.13-.65.4-.9.27-.25.6-.37,1-.37.24,0,.45.05.65.14.19.1.39.27.59.51Z"/>
    <path class="cls-1" d="M106.27,128.26h-4.22c0,.56.14,1.01.44,1.33.3.32.7.48,1.21.48.33,0,.64-.07.93-.2.28-.14.52-.33.71-.58l.45.37c-.23.29-.53.53-.9.7-.37.18-.77.26-1.2.26-.74,0-1.3-.23-1.67-.69s-.56-.98-.56-1.55c0-.47.12-.92.38-1.36s.59-.77,1.01-1.02.88-.36,1.37-.36c.61,0,1.11.2,1.51.62.4.41.6.93.6,1.57,0,.12,0,.26-.03.43ZM105.71,127.73c-.02-.45-.17-.81-.46-1.08-.29-.28-.65-.41-1.08-.41-.47,0-.89.13-1.25.4-.36.27-.62.63-.77,1.1h3.56Z"/>
    <path class="cls-1" d="M113.13,125.77h.6l-.54,4.01c-.09.65-.19,1.1-.32,1.36-.17.36-.46.65-.85.88-.4.23-.87.34-1.41.34s-.99-.11-1.37-.33c-.37-.22-.66-.53-.85-.94l.54-.2c.33.6.89.9,1.68.9.42,0,.77-.08,1.08-.25.3-.17.52-.38.65-.65.08-.16.16-.51.24-1.04l.02-.18c-.51.56-1.14.84-1.87.84-.65,0-1.18-.2-1.58-.6-.4-.4-.6-.92-.6-1.56,0-.47.12-.91.36-1.33s.58-.75,1-1c.42-.25.85-.38,1.29-.38.37,0,.7.08,1,.24.3.17.57.42.8.78l.12-.9ZM111.33,126.23c-.4,0-.77.1-1.11.29s-.6.45-.79.77-.28.69-.28,1.09c0,.46.15.84.44,1.12.29.29.69.43,1.19.43.6,0,1.1-.2,1.5-.59.4-.39.6-.89.6-1.49,0-.53-.16-.93-.49-1.2-.32-.27-.68-.41-1.07-.41Z"/>
    <path class="cls-1" d="M116.69,125.77h.61l-.29,1.98c-.08.58-.13.95-.13,1.11,0,.35.11.64.33.87.22.22.51.34.88.34.3,0,.57-.09.79-.26s.38-.4.48-.68c.05-.14.1-.47.17-.98l.32-2.37h.6l-.23,1.79c-.11.86-.23,1.47-.35,1.83-.12.36-.34.66-.66.89-.32.23-.7.35-1.15.35-.51,0-.94-.17-1.27-.5-.33-.34-.49-.75-.49-1.26,0-.2.02-.43.05-.7l.04-.42.02-.18.26-1.8Z"/>
    <path class="cls-1" d="M122.89,125.77h.61l-.08.6c.16-.23.36-.4.59-.53.23-.13.46-.19.71-.19.17,0,.35.04.54.12l-.29.56c-.15-.06-.28-.09-.38-.09-.21,0-.42.07-.63.22-.21.15-.38.36-.51.65-.13.28-.24.75-.33,1.4l-.28,2.01h-.6l.64-4.74Z"/>
    <path class="cls-1" d="M131.16,130.51h-.61l.09-.71c-.55.56-1.17.83-1.88.83-.64,0-1.17-.21-1.58-.62s-.62-.95-.62-1.6c0-.75.27-1.4.81-1.94.54-.54,1.17-.81,1.9-.81.39,0,.74.08,1.04.25.3.16.55.42.75.77l.11-.9h.63l-.64,4.74ZM128.83,130.07c.39,0,.75-.09,1.07-.28.32-.19.57-.45.76-.8.19-.35.28-.72.28-1.13,0-.49-.16-.89-.46-1.2s-.71-.46-1.21-.46c-.58,0-1.08.21-1.49.63s-.62.94-.62,1.55c0,.5.15.91.46,1.21s.71.46,1.21.46Z"/>
    <path class="cls-1" d="M138.56,130.51h-.61l.1-.73c-.56.57-1.19.86-1.9.86-.64,0-1.16-.21-1.58-.62s-.62-.95-.62-1.6c0-.75.27-1.4.81-1.94s1.17-.81,1.9-.81c.39,0,.74.08,1.03.25s.55.42.77.78l.36-2.73h.63l-.89,6.57ZM136.23,130.07c.39,0,.75-.09,1.07-.28s.58-.45.76-.79c.19-.34.28-.72.28-1.13,0-.49-.15-.89-.46-1.2-.31-.31-.71-.46-1.21-.46-.58,0-1.08.21-1.49.63-.41.42-.62.94-.62,1.55,0,.5.15.91.46,1.21s.71.46,1.21.46Z"/>
    <path class="cls-1" d="M145.96,130.51h-.61l.09-.71c-.55.56-1.17.83-1.88.83-.64,0-1.17-.21-1.58-.62s-.62-.95-.62-1.6c0-.75.27-1.4.81-1.94.54-.54,1.17-.81,1.9-.81.39,0,.74.08,1.04.25.3.16.55.42.75.77l.11-.9h.63l-.64,4.74ZM143.63,130.07c.39,0,.75-.09,1.07-.28.32-.19.57-.45.76-.8.19-.35.28-.72.28-1.13,0-.49-.16-.89-.46-1.2s-.71-.46-1.21-.46c-.58,0-1.08.21-1.49.63s-.62.94-.62,1.55c0,.5.15.91.46,1.21s.71.46,1.21.46Z"/>
  </g>
</svg>